<?xml version="1.0" encoding="UTF-8" standalone="no"?>
<!-- Created with Inkscape (http://www.inkscape.org/) -->

<svg
   width="101.6mm"
   height="128.5mm"
   viewBox="0 0 101.6 128.5"
   version="1.1"
   id="svg1"
   inkscape:version="1.4 (e7c3feb1, 2024-10-09)"
   sodipodi:docname="Pinwheel.svg"
   xmlns:inkscape="http://www.inkscape.org/namespaces/inkscape"
   xmlns:sodipodi="http://sodipodi.sourceforge.net/DTD/sodipodi-0.dtd"
   xmlns="http://www.w3.org/2000/svg"
   xmlns:svg="http://www.w3.org/2000/svg">
  <sodipodi:namedview
     id="namedview1"
     pagecolor="#ffffff"
     bordercolor="#000000"
     borderopacity="0.25"
     inkscape:showpageshadow="2"
     inkscape:pageopacity="0.0"
     inkscape:pagecheckerboard="0"
     inkscape:deskcolor="#d1d1d1"
     inkscape:document-units="mm"
     inkscape:zoom="2"
     inkscape:cx="191.5"
     inkscape:cy="212.75"
     inkscape:window-width="2080"
     inkscape:window-height="1186"
     inkscape:window-x="0"
     inkscape:window-y="25"
     inkscape:window-maximized="0"
     inkscape:current-layer="layer2" />
  <defs
     id="defs1" />
  <g
     inkscape:groupmode="layer"
     id="layer2"
     inkscape:label="artwork">
    <path
       id="rect2"
       style="fill:#cccccc;stroke-width:0.518999"
       d="M -17.393818,-11.412409 H 118.99382 V 136.9489 H -17.393818 Z" />
    <path
       style="font-weight:bold;font-size:2.82223px;font-family:'Gill Sans';-inkscape-font-specification:'Gill Sans Bold';text-align:end;text-anchor:end;stroke-width:0.519"
       d="m 64.500457,106.00491 q -0.06201,0.0234 -0.10611,0.0386 -0.0441,0.0152 -0.08544,0.0276 -0.03996,0.0124 -0.117134,0.0317 -0.130914,0.0303 -0.261828,0.0455 -0.129536,0.0165 -0.27423,0.0165 -0.290767,0 -0.537437,-0.10611 -0.246669,-0.10611 -0.395498,-0.32935 -0.14745,-0.22325 -0.14745,-0.54846 0,-0.20947 0.07579,-0.41066 0.07717,-0.20257 0.234267,-0.32384 0.129536,-0.1006 0.261828,-0.15296 0.13367,-0.0537 0.26045,-0.0717 0.12678,-0.0179 0.279743,-0.0179 0.252181,0 0.416168,0.0386 0.163987,0.0372 0.359669,0.0992 v 0.452 q -0.129536,-0.0758 -0.27423,-0.12678 -0.144694,-0.051 -0.361047,-0.051 -0.249426,0 -0.399632,0.0951 -0.148829,0.0937 -0.208085,0.22462 -0.05788,0.13092 -0.05788,0.25356 0,0.1447 0.06752,0.26734 0.06752,0.12127 0.20395,0.19569 0.136426,0.073 0.329352,0.073 0.110243,0 0.234267,-0.0289 v -0.22462 h -0.259072 v -0.38447 h 0.762058 z m 1.827283,0.0648 q -0.108865,0.0427 -0.201194,0.0689 -0.09233,0.0262 -0.221865,0.0262 -0.122645,0 -0.170877,-0.0427 -0.04823,-0.0441 -0.0689,-0.10611 -0.07993,0.0648 -0.177767,0.10749 -0.09784,0.0413 -0.256316,0.0413 -0.152963,0 -0.248048,-0.0524 -0.09371,-0.0537 -0.132292,-0.13367 -0.03721,-0.0813 -0.03721,-0.16674 0,-0.12954 0.06477,-0.2136 0.06615,-0.0854 0.176389,-0.13918 0.110244,-0.0537 0.292145,-0.11162 0.103354,-0.0331 0.155719,-0.0496 0.05374,-0.0179 0.07993,-0.0276 0.02618,-0.01 0.05512,-0.0248 0,-0.10197 -0.04134,-0.15985 -0.04134,-0.0579 -0.179146,-0.0579 -0.162608,0 -0.301791,0.0717 -0.139182,0.0717 -0.254937,0.18466 v -0.38034 q 0.09233,-0.0662 0.199816,-0.10749 0.107487,-0.0427 0.22462,-0.0634 0.117134,-0.0207 0.237024,-0.0207 0.304547,0 0.45751,0.11851 0.15434,0.11714 0.15434,0.32384 v 0.54157 q 0,0.0772 0.01378,0.11576 0.01516,0.0372 0.05374,0.0372 0.04685,0 0.12678,-0.04 z m -0.690399,-0.26871 v -0.33211 q -0.176389,0.0717 -0.257694,0.12953 -0.0813,0.0565 -0.0813,0.15434 0,0.0703 0.03996,0.10749 0.04134,0.0372 0.09508,0.0372 0.05099,0 0.100597,-0.0276 0.05099,-0.0289 0.103353,-0.0689 z m 1.952686,0.25769 q -0.07717,0.0372 -0.213597,0.0717 -0.135048,0.0345 -0.259072,0.0345 -0.536058,0 -0.536058,-0.52366 v -0.55948 h -0.224621 v -0.0868 l 0.665594,-0.678 h 0.0565 v 0.42031 h 0.474047 v 0.34451 h -0.474047 v 0.44924 q 0,0.0785 0.0096,0.12678 0.0096,0.0482 0.05374,0.0813 0.04548,0.0317 0.136426,0.0317 0.118512,0 0.311438,-0.0992 z m 1.656406,-0.50023 h -0.988056 q 0.02894,0.12816 0.141939,0.20946 0.112999,0.0813 0.256315,0.0813 0.250804,0 0.553973,-0.14056 v 0.3073 q -0.108865,0.0565 -0.264584,0.10335 -0.154341,0.0455 -0.39412,0.0455 -0.259072,0 -0.440973,-0.0965 -0.181902,-0.0965 -0.272853,-0.26183 -0.08957,-0.16537 -0.08957,-0.37483 0,-0.20671 0.08957,-0.36932 0.09095,-0.16398 0.272853,-0.25631 0.181901,-0.0937 0.440973,-0.0937 0.170877,0 0.329352,0.0744 0.159853,0.073 0.261828,0.24115 0.103353,0.16675 0.103353,0.43133 z m -0.465778,-0.24529 q 0,-0.13505 -0.06752,-0.21498 -0.06615,-0.0813 -0.191548,-0.0813 -0.124024,0 -0.201194,0.0827 -0.07579,0.0813 -0.07579,0.2136 z m 3.672482,-0.12954 q 0,0.26734 -0.124024,0.49196 -0.122646,0.22462 -0.366559,0.35692 -0.243913,0.13229 -0.593936,0.13229 -0.354157,0 -0.599448,-0.13781 -0.245292,-0.1378 -0.365182,-0.36242 -0.118511,-0.22462 -0.118511,-0.48094 0,-0.25769 0.118511,-0.48093 0.118512,-0.22463 0.363804,-0.36105 0.246669,-0.13781 0.600826,-0.13781 0.264584,0 0.47129,0.0785 0.208085,0.0786 0.341755,0.2136 0.13367,0.13367 0.202572,0.31282 0.0689,0.17776 0.0689,0.37482 z m -0.587046,0 q 0,-0.10748 -0.03169,-0.19568 -0.03169,-0.0896 -0.09646,-0.15434 -0.06339,-0.0661 -0.155719,-0.10198 -0.09233,-0.0372 -0.213596,-0.0372 -0.231511,0 -0.363803,0.13505 -0.132292,0.13504 -0.132292,0.35415 0,0.21911 0.132292,0.35554 0.13367,0.13505 0.363803,0.13505 0.158475,0 0.270096,-0.062 0.111621,-0.0634 0.169499,-0.17363 0.05788,-0.11162 0.05788,-0.25494 z m 2.342671,0.95636 h -0.497473 v -0.19981 q -0.104731,0.113 -0.220487,0.1695 -0.114377,0.0551 -0.275608,0.0551 -0.318328,0 -0.412035,-0.18466 -0.09371,-0.18603 -0.09371,-0.41892 v -0.82407 h 0.497474 v 0.75792 q 0,0.11438 0.03721,0.20119 0.03858,0.0854 0.165365,0.0854 0.108865,0 0.172255,-0.062 0.06339,-0.062 0.129536,-0.15847 v -0.82407 h 0.497473 z m 1.423518,-0.0813 q -0.07717,0.0372 -0.213596,0.0717 -0.135048,0.0345 -0.259072,0.0345 -0.536058,0 -0.536058,-0.52366 v -0.55948 h -0.224621 v -0.0868 l 0.665594,-0.678 h 0.0565 v 0.42031 h 0.474046 v 0.34451 h -0.474046 v 0.44924 q 0,0.0785 0.0096,0.12678 0.0096,0.0482 0.05374,0.0813 0.04548,0.0317 0.136426,0.0317 0.118511,0 0.311437,-0.0992 z"
       id="text2-6-5-8"
       aria-label="Gate Out" />
    <path
       style="font-weight:bold;font-size:2.82223px;font-family:'Gill Sans';-inkscape-font-specification:'Gill Sans Bold';text-align:end;text-anchor:end;stroke-width:0.519"
       d="m 12.994881,105.27802 q 0,0.17914 -0.09233,0.31005 -0.09095,0.13092 -0.254938,0.2012 -0.163987,0.0689 -0.376206,0.0689 -0.05925,0 -0.146072,-0.008 -0.08544,-0.007 -0.228755,-0.0413 -0.141938,-0.0345 -0.296279,-0.10197 v -0.46854 q 0.144694,0.0896 0.283877,0.14883 0.14056,0.0593 0.300413,0.0593 0.14745,0 0.19017,-0.0482 0.0441,-0.0496 0.0441,-0.0923 0,-0.0772 -0.07441,-0.12954 -0.07442,-0.0537 -0.216353,-0.11024 -0.157097,-0.0661 -0.275608,-0.14332 -0.118512,-0.0785 -0.194304,-0.19568 -0.07441,-0.11713 -0.07441,-0.27699 0,-0.15434 0.07579,-0.27836 0.07579,-0.1254 0.231511,-0.19982 0.155719,-0.0744 0.380339,-0.0744 0.159853,0 0.294901,0.0317 0.136427,0.0303 0.224621,0.0689 0.0882,0.0386 0.121268,0.0606 v 0.44786 q -0.117134,-0.0841 -0.261828,-0.1502 -0.143316,-0.0662 -0.307303,-0.0662 -0.107488,0 -0.155719,0.0413 -0.04823,0.0413 -0.04823,0.10198 0,0.0565 0.04823,0.0978 0.04823,0.0413 0.172255,0.10059 0.220487,0.10336 0.352779,0.18604 0.132292,0.0827 0.206706,0.19155 0.07579,0.10748 0.07579,0.26872 z m 1.85071,-0.15572 q 0,0.14056 -0.03996,0.27147 -0.03996,0.13091 -0.122646,0.23702 -0.0813,0.10474 -0.21084,0.16675 -0.128158,0.0606 -0.299035,0.0606 -0.137805,0 -0.217731,-0.0289 -0.07855,-0.0289 -0.157097,-0.0772 v 0.71934 h -0.496095 v -2.04088 h 0.496095 v 0.12678 q 0.07441,-0.0648 0.163987,-0.10749 0.09095,-0.0441 0.245292,-0.0441 0.152962,0 0.300413,0.0758 0.14745,0.0758 0.242535,0.23702 0.09509,0.15985 0.09509,0.40377 z m -0.522278,0.011 q 0,-0.12678 -0.03996,-0.20533 -0.03996,-0.0799 -0.103353,-0.11437 -0.06339,-0.0358 -0.130914,-0.0358 -0.08819,0 -0.144695,0.0289 -0.0565,0.0276 -0.106109,0.0703 v 0.53605 q 0.02618,0.0138 0.05512,0.0317 0.03032,0.0165 0.05926,0.0289 0.03032,0.0124 0.06339,0.0207 0.03445,0.008 0.07304,0.008 0.117133,0 0.195682,-0.0992 0.07855,-0.0992 0.07855,-0.2701 z m 2.218648,0.11851 h -0.988056 q 0.02894,0.12816 0.141938,0.20947 0.112999,0.0813 0.256316,0.0813 0.250803,0 0.553973,-0.14056 v 0.3073 q -0.108866,0.0565 -0.264584,0.10336 -0.154341,0.0455 -0.39412,0.0455 -0.259072,0 -0.440974,-0.0965 -0.181901,-0.0965 -0.272852,-0.26183 -0.08957,-0.16536 -0.08957,-0.37483 0,-0.2067 0.08957,-0.36931 0.09095,-0.16399 0.272852,-0.25632 0.181902,-0.0937 0.440974,-0.0937 0.170877,0 0.329352,0.0744 0.159853,0.073 0.261828,0.24116 0.103353,0.16674 0.103353,0.43132 z m -0.465778,-0.24529 q 0,-0.13505 -0.06752,-0.21497 -0.06615,-0.0813 -0.191548,-0.0813 -0.124024,0 -0.201194,0.0827 -0.07579,0.0813 -0.07579,0.2136 z m 2.148367,0.24529 h -0.988056 q 0.02894,0.12816 0.141938,0.20947 0.112999,0.0813 0.256316,0.0813 0.250804,0 0.553973,-0.14056 v 0.3073 q -0.108866,0.0565 -0.264584,0.10336 -0.154341,0.0455 -0.39412,0.0455 -0.259072,0 -0.440974,-0.0965 -0.181901,-0.0965 -0.272852,-0.26183 -0.08957,-0.16536 -0.08957,-0.37483 0,-0.2067 0.08957,-0.36931 0.09095,-0.16399 0.272852,-0.25632 0.181902,-0.0937 0.440974,-0.0937 0.170877,0 0.329352,0.0744 0.159853,0.073 0.261828,0.24116 0.103353,0.16674 0.103353,0.43132 z m -0.465778,-0.24529 q 0,-0.13505 -0.06752,-0.21497 -0.06615,-0.0813 -0.191548,-0.0813 -0.124024,0 -0.201194,0.0827 -0.07579,0.0813 -0.07579,0.2136 z m 2.193843,0.82683 h -0.497473 v -0.12678 q -0.07855,0.0661 -0.166743,0.10886 -0.08682,0.0427 -0.241158,0.0427 -0.152963,0 -0.300413,-0.0758 -0.147451,-0.0758 -0.242535,-0.23565 -0.09509,-0.16123 -0.09509,-0.40514 0,-0.19155 0.07166,-0.35829 0.07166,-0.16812 0.224621,-0.27285 0.152962,-0.10474 0.374827,-0.10474 0.137804,0 0.223243,0.0303 0.08544,0.0303 0.151585,0.0772 v -0.5898 h 0.497473 z m -0.497473,-0.44649 v -0.53606 q -0.08682,-0.0482 -0.136427,-0.0689 -0.04823,-0.0207 -0.114377,-0.0207 -0.117134,0 -0.195682,0.0992 -0.07717,0.0992 -0.07717,0.27009 0,0.18604 0.0813,0.27148 0.08268,0.0841 0.191548,0.0841 0.08957,0 0.144694,-0.0276 0.05512,-0.0289 0.10611,-0.0717 z"
       id="text2"
       aria-label="Speed" />
    <path
       style="font-weight:bold;font-size:2.82223px;font-family:'Gill Sans';-inkscape-font-specification:'Gill Sans Bold';text-align:end;text-anchor:end;stroke-width:0.519"
       d="m 43.230447,106.12689 h -0.576021 v -1.10657 l -0.519522,0.64079 h -0.04548 l -0.520899,-0.64079 v 1.10657 h -0.559485 v -1.90996 h 0.522277 l 0.587046,0.71658 0.589802,-0.71658 h 0.522278 z m 1.856223,-0.0703 q -0.108865,0.0427 -0.201194,0.0689 -0.09233,0.0262 -0.221865,0.0262 -0.122646,0 -0.170877,-0.0427 -0.04823,-0.0441 -0.0689,-0.10611 -0.07993,0.0648 -0.177768,0.10749 -0.09784,0.0413 -0.256316,0.0413 -0.152962,0 -0.248047,-0.0524 -0.09371,-0.0537 -0.132292,-0.13367 -0.03721,-0.0813 -0.03721,-0.16674 0,-0.12954 0.06477,-0.2136 0.06615,-0.0854 0.176389,-0.13918 0.110243,-0.0537 0.292145,-0.11162 0.103353,-0.0331 0.155719,-0.0496 0.05374,-0.0179 0.07993,-0.0276 0.02618,-0.01 0.05512,-0.0248 0,-0.10197 -0.04134,-0.15985 -0.04134,-0.0579 -0.179146,-0.0579 -0.162609,0 -0.301791,0.0717 -0.139182,0.0717 -0.254938,0.18466 v -0.38034 q 0.09233,-0.0661 0.199816,-0.10749 0.107487,-0.0427 0.224621,-0.0634 0.117134,-0.0207 0.237023,-0.0207 0.304548,0 0.45751,0.11851 0.154341,0.11714 0.154341,0.32384 v 0.54157 q 0,0.0772 0.01378,0.11576 0.01516,0.0372 0.05374,0.0372 0.04685,0 0.12678,-0.04 z m -0.690399,-0.26872 v -0.3321 q -0.17639,0.0717 -0.257694,0.12953 -0.08131,0.0565 -0.08131,0.15434 0,0.0703 0.03996,0.10749 0.04134,0.0372 0.09508,0.0372 0.05099,0 0.100597,-0.0276 0.05099,-0.0289 0.103353,-0.0689 z m 1.943039,-0.0703 q 0,0.19293 -0.141938,0.3142 -0.140561,0.11989 -0.418925,0.11989 -0.155719,0 -0.276986,-0.0276 -0.121268,-0.0289 -0.264585,-0.0813 v -0.35278 q 0.125402,0.0717 0.217731,0.10887 0.09233,0.0372 0.202572,0.0372 0.186036,0 0.186036,-0.10198 0,-0.0344 -0.02756,-0.0606 -0.02618,-0.0276 -0.09371,-0.0606 -0.06615,-0.0345 -0.177767,-0.0813 -0.137804,-0.0606 -0.234267,-0.16261 -0.09646,-0.10198 -0.09646,-0.24943 0,-0.10473 0.06339,-0.20119 0.06477,-0.0965 0.194304,-0.1571 0.129536,-0.062 0.312815,-0.062 0.0441,0 0.111622,0.007 0.0689,0.006 0.172255,0.0317 0.104731,0.0262 0.198438,0.0744 v 0.34313 q -0.0441,-0.0262 -0.07441,-0.0441 -0.02894,-0.0179 -0.07855,-0.04 -0.04961,-0.022 -0.117133,-0.0386 -0.06615,-0.0179 -0.136427,-0.0179 -0.08544,0 -0.117133,0.0331 -0.03169,0.0331 -0.03169,0.0661 0,0.0345 0.03307,0.0648 0.03307,0.0289 0.14745,0.073 0.165365,0.0634 0.264585,0.13091 0.09922,0.0661 0.14056,0.14607 0.04272,0.0799 0.04272,0.18879 z m 1.36564,0 q 0,0.19293 -0.141939,0.3142 -0.14056,0.11989 -0.418924,0.11989 -0.155719,0 -0.276987,-0.0276 -0.121267,-0.0289 -0.264584,-0.0813 v -0.35278 q 0.125402,0.0717 0.217731,0.10887 0.09233,0.0372 0.202572,0.0372 0.186036,0 0.186036,-0.10198 0,-0.0344 -0.02756,-0.0606 -0.02618,-0.0276 -0.09371,-0.0606 -0.06615,-0.0345 -0.177767,-0.0813 -0.137805,-0.0606 -0.234268,-0.16261 -0.09646,-0.10198 -0.09646,-0.24943 0,-0.10473 0.06339,-0.20119 0.06477,-0.0965 0.194304,-0.1571 0.129536,-0.062 0.312816,-0.062 0.0441,0 0.111621,0.007 0.0689,0.006 0.172256,0.0317 0.104731,0.0262 0.198438,0.0744 v 0.34313 q -0.0441,-0.0262 -0.07442,-0.0441 -0.02894,-0.0179 -0.07855,-0.04 -0.04961,-0.022 -0.117134,-0.0386 -0.06615,-0.0179 -0.136426,-0.0179 -0.08544,0 -0.117133,0.0331 -0.03169,0.0331 -0.03169,0.0661 0,0.0345 0.03307,0.0648 0.03307,0.0289 0.14745,0.073 0.165365,0.0634 0.264584,0.13091 0.09922,0.0661 0.14056,0.14607 0.04272,0.0799 0.04272,0.18879 z"
       id="text2-6"
       aria-label="Mass" />
    <path
       style="font-weight:bold;font-size:2.82223px;font-family:'Gill Sans';-inkscape-font-specification:'Gill Sans Bold';text-align:end;text-anchor:end;stroke-width:0.519"
       d="m 83.985922,105.99664 q -0.118512,0.062 -0.242536,0.0992 -0.124023,0.0372 -0.250803,0.0524 -0.125402,0.0165 -0.26045,0.0165 -0.249426,0 -0.447864,-0.0689 -0.19706,-0.0689 -0.343132,-0.20258 -0.144695,-0.13504 -0.217731,-0.31419 -0.07166,-0.18052 -0.07166,-0.3955 0,-0.24667 0.08544,-0.43132 0.08544,-0.18604 0.238401,-0.30869 0.15434,-0.12264 0.350022,-0.18052 0.19706,-0.0593 0.414791,-0.0593 0.325218,0 0.737253,0.1447 v 0.50712 q -0.141939,-0.0882 -0.281121,-0.14607 -0.137804,-0.0593 -0.325218,-0.0593 -0.166743,0 -0.311437,0.0662 -0.144695,0.0661 -0.232889,0.18879 -0.08819,0.12264 -0.08819,0.28663 0,0.1447 0.07717,0.26596 0.07717,0.11989 0.213597,0.19155 0.137804,0.0703 0.310059,0.0703 0.139182,0 0.263206,-0.0331 0.124024,-0.0345 0.208085,-0.0758 0.08544,-0.0413 0.175011,-0.0978 z m 2.255855,-1.76665 -0.861277,1.93477 h -0.380339 l -0.84474,-1.93477 h 0.599448 l 0.43684,1.10243 0.449241,-1.10243 z m 3.143313,0.9536 q 0,0.26734 -0.124023,0.49196 -0.122646,0.22462 -0.36656,0.35692 -0.243913,0.13229 -0.593936,0.13229 -0.354156,0 -0.599448,-0.13781 -0.245291,-0.1378 -0.365181,-0.36242 -0.118512,-0.22462 -0.118512,-0.48094 0,-0.25769 0.118512,-0.48093 0.118512,-0.22463 0.363803,-0.36105 0.24667,-0.13781 0.600826,-0.13781 0.264584,0 0.471291,0.0785 0.208084,0.0786 0.341754,0.2136 0.13367,0.13367 0.202572,0.31282 0.0689,0.17776 0.0689,0.37482 z m -0.587045,0 q 0,-0.10748 -0.03169,-0.19568 -0.03169,-0.0896 -0.09646,-0.15434 -0.06339,-0.0661 -0.155719,-0.10198 -0.09233,-0.0372 -0.213597,-0.0372 -0.231511,0 -0.363803,0.13505 -0.132292,0.13504 -0.132292,0.35415 0,0.21911 0.132292,0.35554 0.13367,0.13505 0.363803,0.13505 0.158475,0 0.270097,-0.062 0.111621,-0.0634 0.169499,-0.17363 0.05788,-0.11162 0.05788,-0.25494 z m 2.342671,0.95636 h -0.497473 v -0.19981 q -0.104731,0.113 -0.220487,0.1695 -0.114377,0.0551 -0.275608,0.0551 -0.318328,0 -0.412035,-0.18466 -0.09371,-0.18603 -0.09371,-0.41892 v -0.82407 h 0.497474 v 0.75792 q 0,0.11438 0.03721,0.20119 0.03858,0.0854 0.165365,0.0854 0.108865,0 0.172255,-0.062 0.06339,-0.062 0.129536,-0.15847 v -0.82407 h 0.497473 z m 1.423518,-0.0813 q -0.07717,0.0372 -0.213597,0.0717 -0.135048,0.0345 -0.259072,0.0345 -0.536058,0 -0.536058,-0.52366 v -0.55948 h -0.224621 v -0.0868 l 0.665595,-0.678 h 0.0565 v 0.42031 h 0.474047 v 0.34451 H 92.05298 v 0.44924 q 0,0.0785 0.0096,0.12678 0.0096,0.0482 0.05374,0.0813 0.04548,0.0317 0.136426,0.0317 0.118512,0 0.311438,-0.0992 z"
       id="text2-6-5"
       aria-label="CV Out" />
    <path
       style="font-weight:bold;font-size:4.93889px;font-family:'Gill Sans';-inkscape-font-specification:'Gill Sans Bold';text-align:end;text-anchor:end;fill:#1a1a1a;stroke-width:0.519"
       d="m 42.594639,121.40174 q 0,0.1857 -0.06511,0.36415 -0.0627,0.17605 -0.204983,0.33039 -0.142283,0.15192 -0.385851,0.24839 -0.241157,0.0941 -0.56913,0.0941 h -0.660769 v 1.25401 h -1.008036 v -3.34243 h 1.668805 q 0.327973,0 0.56913,0.0965 0.243568,0.0965 0.385851,0.25081 0.142282,0.15434 0.204983,0.3352 0.06511,0.18087 0.06511,0.36897 z m -1.027327,0.005 q 0,-0.23875 -0.142283,-0.32556 -0.139871,-0.0892 -0.504018,-0.0892 h -0.212217 v 0.80546 h 0.217041 q 0.250803,0 0.38585,-0.0314 0.135048,-0.0314 0.195337,-0.11575 0.06029,-0.0844 0.06029,-0.24357 z m 2.288577,-0.73553 q 0,0.15193 -0.108521,0.25804 -0.10852,0.10611 -0.258037,0.10611 -0.101286,0 -0.185691,-0.0482 -0.08199,-0.0482 -0.130225,-0.13023 -0.04823,-0.0844 -0.04823,-0.18569 0,-0.14952 0.106109,-0.25804 0.106109,-0.10852 0.258038,-0.10852 0.149517,0 0.258037,0.10852 0.108521,0.10852 0.108521,0.25804 z m 0.06994,3.02169 h -0.870576 v -2.45497 h 0.870576 z m 3.219443,0 h -0.868165 v -1.32395 q 0,-0.20257 -0.06752,-0.35209 -0.06511,-0.15192 -0.289388,-0.15192 -0.106109,0 -0.188102,0.041 -0.07958,0.0386 -0.144694,0.10129 -0.0627,0.0627 -0.106109,0.12058 -0.04341,0.0579 -0.08923,0.12299 v 1.44211 h -0.868164 v -2.45497 h 0.868164 v 0.35209 q 0.204983,-0.21946 0.409967,-0.30627 0.207394,-0.0892 0.460609,-0.0892 0.882634,0 0.882634,1.05627 z m 4.497573,-2.45497 -0.96945,2.45497 h -0.547426 l -0.547426,-1.33842 -0.545014,1.33842 h -0.547426 l -0.993566,-2.45497 h 0.880222 l 0.448552,1.23954 0.479902,-1.23954 h 0.552249 l 0.484725,1.23954 0.434082,-1.23954 z m 2.932466,2.45497 h -0.868164 v -1.2733 q 0,-0.0145 0,-0.0265 0.0024,-0.0145 0.0024,-0.0579 0,-0.17604 -0.07476,-0.32315 -0.07476,-0.1471 -0.284565,-0.1471 -0.163987,0 -0.289388,0.11093 -0.125402,0.10852 -0.238746,0.27492 v 1.44211 h -0.868164 v -3.34243 h 0.868164 v 1.23955 q 0.21463,-0.2291 0.424436,-0.3111 0.209807,-0.0844 0.44614,-0.0844 0.882634,0 0.882634,0.99115 z m 3.038575,-1.01768 h -1.729094 q 0.05064,0.22428 0.248391,0.36656 0.197749,0.14228 0.448552,0.14228 0.438905,0 0.96945,-0.24598 v 0.53778 q -0.190514,0.0989 -0.463021,0.18087 -0.270096,0.0796 -0.689708,0.0796 -0.453375,0 -0.771702,-0.16881 -0.318327,-0.16881 -0.47749,-0.4582 -0.156752,-0.28938 -0.156752,-0.65594 0,-0.36174 0.156752,-0.6463 0.159163,-0.28698 0.47749,-0.44855 0.318327,-0.16399 0.771702,-0.16399 0.299034,0 0.576364,0.13022 0.279742,0.12782 0.458198,0.42203 0.180868,0.2918 0.180868,0.75482 z m -0.81511,-0.42926 q 0,-0.23633 -0.118167,-0.3762 -0.115755,-0.14228 -0.335208,-0.14228 -0.217041,0 -0.352089,0.14469 -0.132636,0.14228 -0.132636,0.37379 z m 3.759633,0.42926 h -1.729093 q 0.05064,0.22428 0.248391,0.36656 0.197749,0.14228 0.448552,0.14228 0.438905,0 0.96945,-0.24598 v 0.53778 q -0.190514,0.0989 -0.463021,0.18087 -0.270096,0.0796 -0.689709,0.0796 -0.453374,0 -0.771701,-0.16881 -0.318327,-0.16881 -0.47749,-0.4582 -0.156752,-0.28938 -0.156752,-0.65594 0,-0.36174 0.156752,-0.6463 0.159163,-0.28698 0.47749,-0.44855 0.318327,-0.16399 0.771701,-0.16399 0.299035,0 0.576365,0.13022 0.279742,0.12782 0.458198,0.42203 0.180867,0.2918 0.180867,0.75482 z m -0.815109,-0.42926 q 0,-0.23633 -0.118167,-0.3762 -0.115755,-0.14228 -0.335208,-0.14228 -0.217041,0 -0.352089,0.14469 -0.132636,0.14228 -0.132636,0.37379 z m 2.155942,1.44694 h -0.870576 v -3.34243 h 0.870576 z"
       id="text3"
       aria-label="Pinwheel" />
    <path
       style="font-weight:bold;font-size:4.93889px;font-family:'Gill Sans';-inkscape-font-specification:'Gill Sans Bold';text-align:end;text-anchor:end;fill:#1a1a1a;stroke-width:0.519"
       d="M 48.488513,7.8265659 H 48.093016 V 8.5476246 H 47.203147 V 7.8265659 H 45.845435 V 7.1899122 l 1.531345,-1.98472 h 0.716236 v 2.0474207 h 0.395497 z M 47.203147,7.2526129 V 6.181877 l -0.829579,1.0707359 z m 6.115735,1.2950117 H 52.450718 V 7.2381435 q 0,-0.2604493 -0.08682,-0.3882623 -0.0844,-0.1302247 -0.270095,-0.1302247 -0.180868,0 -0.296623,0.1109321 -0.115755,0.1085206 -0.23151,0.2749187 V 8.5476246 H 50.697508 V 7.2381435 q 0,-0.2483914 -0.07958,-0.3834392 -0.07958,-0.1350478 -0.282154,-0.1350478 -0.09646,0 -0.178456,0.038585 -0.07958,0.038585 -0.130224,0.086816 -0.05064,0.048231 -0.12299,0.1422825 -0.07235,0.094051 -0.09164,0.1181668 V 8.5476246 H 48.944299 V 6.092649 h 0.868164 V 6.4447378 Q 50.0078,6.237343 50.210372,6.1432919 q 0.202571,-0.094051 0.467844,-0.094051 0.125401,0 0.238745,0.024116 0.113344,0.021704 0.221864,0.07717 0.110932,0.055466 0.20016,0.1519288 0.08923,0.096463 0.142283,0.2242757 0.209806,-0.2363336 0.434082,-0.3569119 0.226687,-0.1205784 0.520898,-0.1205784 0.294212,0 0.49196,0.1181668 0.20016,0.1181668 0.294211,0.3424426 0.09646,0.2218642 0.09646,0.540191 z m 2.435683,-0.7162355 q 0,0.3376194 -0.248391,0.5498373 -0.24598,0.2098064 -0.733116,0.2098064 -0.272508,0 -0.484726,-0.048231 -0.212217,-0.050643 -0.46302,-0.1422825 V 7.7831577 q 0.219452,0.1254015 0.381027,0.1905139 0.161575,0.065112 0.354501,0.065112 0.325561,0 0.325561,-0.178456 0,-0.060289 -0.04823,-0.106109 -0.04582,-0.048231 -0.163987,-0.1061089 -0.115755,-0.060289 -0.311092,-0.1422825 -0.241157,-0.106109 -0.409966,-0.284565 -0.16881,-0.178456 -0.16881,-0.4364937 0,-0.1832791 0.110932,-0.3520888 0.113344,-0.1688097 0.340031,-0.2749187 0.226687,-0.1085205 0.547426,-0.1085205 0.07717,0 0.195337,0.012058 0.120578,0.00965 0.301446,0.055466 0.183279,0.04582 0.347265,0.1302246 v 0.6004803 q -0.07717,-0.04582 -0.130224,-0.07717 -0.05064,-0.03135 -0.13746,-0.069935 -0.08682,-0.038585 -0.204983,-0.067524 -0.115755,-0.03135 -0.238745,-0.03135 -0.149517,0 -0.204983,0.057878 -0.05547,0.057878 -0.05547,0.1157553 0,0.060289 0.05788,0.1133436 0.05788,0.050643 0.258038,0.1278131 0.289388,0.1109321 0.463021,0.2290989 0.173633,0.1157552 0.24598,0.2556261 0.07476,0.139871 0.07476,0.3303848 z"
       id="text3-2"
       aria-label="4ms" />
    <path
       id="rect1"
       style="fill:#83eeff;stroke-width:0.518999;fill-opacity:1"
       d="M 6.2838554,13.758333 H 95.316143 V 98.028124 H 6.2838554 Z" />
    <path
       style="fill:#008000;fill-opacity:1;stroke-width:0.518999"
       d="M 6.2838514,97.88017 95.316147,98.028128 51.939409,69.585419 Z"
       id="path3"
       sodipodi:nodetypes="cccc" />
    <path
       style="fill:#ffff00;fill-opacity:1;stroke-width:0.518999"
       id="path15"
       d="m 79.491135,22.67113 c -0.18723,0.172443 -0.416697,0.302641 -0.596794,0.482796 -0.100478,0.10051 -0.204782,0.250471 -0.289097,0.364786 -0.236612,0.332276 -0.37415,0.711176 -0.505833,1.092363 -0.165714,0.364943 -0.191135,0.75397 -0.191968,1.149211 -0.01643,0.464715 0.104835,0.912931 0.274476,1.340699 0.144354,0.321857 0.288361,0.64729 0.483605,0.942067 0.145037,0.218221 0.282819,0.438629 0.477846,0.615852 1.108797,0.632201 2.658205,2.128774 4.257373,2.113008 0.09113,-7.94e-4 0.181837,-0.01246 0.272754,-0.01868 0.103833,-0.01625 0.208494,-0.02787 0.311493,-0.04874 0.210643,-0.04269 0.476065,-0.123386 0.682832,-0.177218 0.316518,-0.08241 0.630539,-0.160237 0.942726,-0.258289 0.358426,-0.09684 0.679908,-0.272068 0.92257,-0.553127 0.180557,-0.226949 0.320652,-0.48034 0.455102,-0.73605 0.177075,-0.283847 0.302517,-0.592137 0.383088,-0.915736 0.09709,-0.417152 0.127246,-0.840869 0.09741,-1.267055 -0.05136,-0.386869 -0.163493,-0.762814 -0.273409,-1.136371 -0.116237,-0.370786 -0.308534,-0.709032 -0.506669,-1.040771 -0.171591,-0.301265 -0.35504,-0.593282 -0.566164,-0.868431 -0.167452,-0.207696 -0.338635,-0.414045 -0.551934,-0.576039 -0.886817,-0.432732 -2.499265,-2.069012 -3.985501,-2.081033 -0.236558,0.02186 -0.477398,-0.01496 -0.709504,0.03774 -0.171704,0.03238 -0.333139,0.104309 -0.487148,0.186171 -0.154046,0.07876 -0.283033,0.191064 -0.436073,0.273042 -0.256169,0.121792 -0.529712,0.183934 -0.800018,0.261946 -0.270875,0.07424 -0.48147,0.246522 -0.705363,0.405118 -0.139465,0.06419 -0.241014,0.172086 -0.352396,0.2755 -0.157472,0.262247 -0.267195,0.557184 -0.359624,0.848531 -0.107508,0.29185 -0.126349,0.602404 -0.152506,0.909069 -0.0066,0.29259 0.03096,0.577665 0.126156,0.853768 0.08568,0.233895 0.265358,0.414779 0.40105,0.620209 0.133964,0.163189 0.267023,0.325471 0.410268,0.480845 0.113025,0.08895 0.178925,0.218765 0.267946,0.327194 0.04591,0.05592 0.101241,0.103423 0.150239,0.15666 0.06308,0.09184 0.155429,0.161901 0.225954,0.245657 0.03993,0.04743 0.06799,0.103727 0.103873,0.154289 0.998905,1.0047 0.179652,0.191524 3.519185,2.071833 0.03466,0.01953 0.07959,0.0013 0.119259,0.0044 0.0368,0.0028 0.07401,0.0046 0.109945,0.01307 0.42541,0.09974 -0.27345,-0.02986 0.203083,0.05387 0.395544,0.08484 0.467424,0.03813 0.765114,-0.238262 0.317458,-0.263597 0.594609,-0.56673 0.877129,-0.865743 0.200514,-0.217382 0.331747,-0.478303 0.463796,-0.739238 0.144819,-0.233315 0.22588,-0.498036 0.291322,-0.762773 0.06675,-0.294662 -0.02223,-0.588594 -0.128879,-0.861947 -0.132051,-0.279458 -0.252084,-0.564247 -0.37924,-0.845916 -0.08512,-0.238203 -0.19893,-0.457819 -0.335098,-0.670407 -1.659329,-2.084662 -2.430346,-2.235986 -4.047053,-2.018677 -0.275759,0.05567 -0.433922,0.18226 -0.617038,0.384781 -0.174889,0.159814 -0.272547,0.357295 -0.341114,0.580093 -0.06632,0.240545 -0.102285,0.487738 -0.136075,0.734469 -0.0094,0.104682 -0.0058,0.05257 -0.01082,0.156323 0,0 3.522181,1.804139 3.522181,1.804139 v 0 c -7.94e-4,-0.09559 -2.46e-4,-0.04748 -0.0016,-0.14433 -0.003,-0.221523 0.01003,-0.444638 0.06732,-0.659637 0.05585,-0.160955 0.139004,-0.294743 0.263435,-0.412721 0.127786,-0.115039 0.271203,-0.161092 0.445566,-0.159239 0.13031,-1.06e-4 0.243332,0.0081 0.36046,0.07287 0.02482,0.01372 0.09226,0.06569 0.06774,0.05144 -3.456085,-2.008437 -4.436803,-2.486724 -3.217013,-1.888834 0.128821,0.06847 0.149749,0.109712 0.238924,0.220971 0.09055,0.112978 0.134853,0.162335 0.171855,0.313512 0.122251,0.283947 0.274402,0.552834 0.386485,0.841457 0.09175,0.203924 0.229148,0.418919 0.215781,0.648257 -0.03013,0.239904 -0.08986,0.468051 -0.228047,0.670861 -0.11874,0.232046 -0.218348,0.472818 -0.398262,0.667435 -0.233923,0.296758 -0.497906,0.573785 -0.813493,0.784819 -0.04651,0.01775 -0.0905,0.04466 -0.139541,0.05322 -0.08478,0.01482 -0.372372,-0.09641 -0.47176,-0.10681 -0.09604,-0.03067 -0.209047,-0.04087 -0.298088,-0.08967 -0.03065,-0.0168 -0.115421,-0.07867 -0.0852,-0.06112 3.912587,2.272881 4.387096,2.538655 3.218614,1.882806 -0.130352,-0.0557 -0.09621,-0.04924 -0.172434,-0.156599 -0.05268,-0.0742 -0.136933,-0.126576 -0.18822,-0.20239 -0.04665,-0.05358 -0.08579,-0.114041 -0.137102,-0.163184 -0.02196,-0.02104 -0.05242,-0.03185 -0.07427,-0.05301 -0.08419,-0.08155 -0.135104,-0.195556 -0.213392,-0.281958 -0.142848,-0.147172 -0.287319,-0.293256 -0.407294,-0.460383 -0.174342,-0.152321 -0.268658,-0.374822 -0.450025,-0.522894 -0.04687,-0.07493 -0.136212,-0.217982 -0.161316,-0.300516 -0.03735,-0.122801 -0.02103,-0.262466 -0.05058,-0.387116 -0.0016,-0.278898 0.01511,-0.559093 0.08396,-0.830505 0.06807,-0.227316 0.148704,-0.476189 0.320787,-0.64699 0.08996,-0.09558 0.204721,-0.156319 0.301553,-0.244731 0.17776,-0.141647 0.373478,-0.244974 0.595291,-0.301729 0.303885,-0.08053 0.599803,-0.187098 0.885841,-0.317974 0.139891,-0.08095 0.263044,-0.187705 0.420505,-0.236101 0.135456,-0.04565 0.263486,-0.09718 0.409721,-0.09684 0.220842,0.0098 0.444299,-0.0067 0.662413,0.03807 0.149257,0.03543 0.286806,0.0943 0.414637,0.18045 -1.085713,-0.631878 -2.171425,-1.263756 -3.257138,-1.895634 0.223737,0.141074 0.449491,0.27274 0.61458,0.487609 0.226303,0.249375 0.440708,0.509553 0.595707,0.810764 0.186105,0.323741 0.415919,0.621429 0.559945,0.968761 0.118158,0.35094 0.201618,0.71172 0.30171,1.068103 0.0641,0.38043 0.06182,0.762467 -0.02686,1.139927 -0.08304,0.291998 -0.212915,0.562284 -0.366398,0.824033 -0.118618,0.224957 -0.248044,0.443749 -0.410458,0.64062 -0.212622,0.205036 -0.462325,0.345511 -0.744792,0.437052 -0.597381,0.209283 -1.225476,0.381082 -1.862502,0.375266 -0.228502,-0.02622 -0.459034,-0.04783 -0.678929,-0.120528 -0.05926,-0.01958 -0.11748,-0.04284 -0.173628,-0.0701 -0.04969,-0.02413 -0.190804,-0.111382 -0.143031,-0.08366 1.074172,0.623324 2.148155,1.246979 3.222231,1.870467 -0.04154,-0.01765 -0.19131,-0.07835 -0.231442,-0.106413 -0.135181,-0.09455 -0.205311,-0.248856 -0.308057,-0.371702 -0.05656,-0.0768 -0.121809,-0.147082 -0.176448,-0.225259 -0.144893,-0.207314 -0.26127,-0.437824 -0.3767,-0.66195 -0.179533,-0.380304 -0.34589,-0.775107 -0.35311,-1.202658 8.2e-5,-0.348578 0.03915,-0.692185 0.156702,-1.022615 0.118536,-0.344297 0.219887,-0.696745 0.437367,-0.99562 0.201803,-0.273586 0.480861,-0.529559 0.821891,-0.603325 z" />
    <path
       style="fill:#ffff00;fill-opacity:1;stroke-width:0.518999"
       id="path16"
       d="m 78.610732,22.052338 c -0.178719,0.270495 -0.387996,0.518447 -0.556827,0.795414 -0.169905,0.290119 -0.256339,0.61661 -0.354679,0.935377 -0.124426,0.332965 -0.223922,0.670388 -0.255439,1.025065 -0.0019,0.486229 0.06794,0.969896 0.129537,1.451429 0.03461,0.406797 0.107484,0.807977 0.241144,1.193848 0.106426,0.289573 0.160324,0.594039 0.246605,0.889306 0.08473,0.309089 0.210844,0.600949 0.358143,0.884595 0.883703,1.34669 2.506165,2.357297 4.119652,2.467901 0.455705,0.04068 0.864298,-0.03567 1.265539,-0.25042 0.05862,-0.03397 0.119512,-0.0643 0.175869,-0.101917 0.06418,-0.04284 0.122372,-0.09408 0.185102,-0.139013 0.203533,-0.145801 0.421378,-0.275264 0.633653,-0.408077 0.278183,-0.182944 0.575665,-0.329949 0.855642,-0.510381 0.335325,-0.178213 0.565491,-0.460055 0.796509,-0.751232 0.222491,-0.318598 0.41756,-0.651877 0.603999,-0.992301 0.192133,-0.327305 0.273865,-0.696788 0.314764,-1.069999 0.04747,-0.398341 0.05166,-0.799743 0.04883,-1.200352 0.0091,-0.414593 -0.01061,-0.8259 -0.08097,-1.23472 -0.08102,-0.352508 -0.208026,-0.692144 -0.321824,-1.034978 -0.104195,-0.322457 -0.233661,-0.640553 -0.40432,-0.933729 -0.123976,-0.224907 -0.275863,-0.451085 -0.504923,-0.58218 -3.478699,-1.990902 -2.227884,-1.631382 -3.719661,-2.039667 -0.326011,-0.07868 -0.660235,-0.08563 -0.993674,-0.09163 -0.192495,0.0095 -0.36993,-0.07747 -0.559689,-0.09886 -1.431824,-0.175308 -0.930791,-0.519018 3.102361,2.3252 0.01984,0.014 0.04864,4.49e-4 0.07284,-0.0016 0.065,-0.0055 0.129715,-0.01401 0.194569,-0.02102 0.702974,-0.0614 1.406801,-0.0501 2.094431,0.115282 0.265928,0.09986 0.141494,0.04183 0.368679,0.16671 0.04607,0.02533 0.183909,0.101997 0.138276,0.07588 -5.798383,-3.318602 -4.095432,-2.436414 -3.010183,-1.70333 0.209659,0.145871 0.302366,0.327998 0.429916,0.542041 0.147889,0.239591 0.305983,0.474063 0.419664,0.732348 0.258559,0.405204 0.448948,0.84469 0.618572,1.292802 0.191124,0.540478 0.262578,1.110535 0.286184,1.680391 0.0028,0.298724 0.01582,0.604909 -0.04234,0.900157 -0.02558,0.129904 -0.06723,0.238151 -0.109868,0.362598 -0.148778,0.373787 -0.303583,0.745881 -0.47652,1.109374 -0.145783,0.309377 -0.301477,0.61387 -0.479287,0.905893 -0.185172,0.209116 -0.429337,0.356717 -0.663737,0.504373 -0.428855,0.191561 -0.915315,0.193455 -1.376645,0.220501 -0.469104,0.0011 -0.94606,0.05028 -1.413812,-0.0094 -0.13839,-0.01765 -0.409297,-0.08367 -0.54865,-0.115893 -0.308208,-0.03289 -0.51783,-0.279958 -0.794885,-0.383635 -0.09534,-0.03568 -0.196546,-0.05317 -0.293971,-0.08267 -0.110302,-0.0334 -0.219398,-0.07066 -0.329099,-0.105994 -0.386644,-0.114901 -0.797642,-0.204558 -1.153129,-0.404612 -0.06259,-0.03522 -0.23995,-0.157593 -0.177519,-0.1221 1.064315,0.605105 2.122538,1.220862 3.183808,1.831293 -0.243729,-0.126852 -0.413007,-0.332439 -0.55767,-0.560446 -0.156213,-0.224668 -0.259152,-0.470053 -0.325012,-0.733941 -0.07193,-0.407514 -0.149408,-0.81303 -0.189518,-1.225182 -0.0376,-0.357283 -0.06592,-0.713192 -0.01085,-1.069406 0.05845,-0.318012 0.184954,-0.614138 0.310864,-0.90946 0.08686,-0.208154 0.183978,-0.411552 0.273524,-0.618498 0.09123,-0.212363 0.177784,-0.426002 0.303977,-0.620378 0.115713,-0.170108 0.25537,-0.322656 0.403185,-0.465159 0.159208,-0.112934 0.321588,-0.214283 0.463412,-0.349006 0.281329,-0.253505 0.555276,-0.515283 0.877025,-0.717331 0.105262,-0.07109 0.208497,-0.156762 0.331619,-0.196673 0.09742,-0.03158 0.211611,-0.03466 0.31165,-0.05652 0.256439,-0.09093 0.319839,0.06415 0.528105,0.120494 0.05965,0.01363 0.249865,0.04265 0.304046,0.0243 0.03054,-0.01035 0.0558,-0.03233 0.0837,-0.04849 0.09575,-0.0323 0.0482,-0.01809 0.142549,-0.04295 0,0 -3.254986,-2.257446 -3.254986,-2.257446 v 0 c -0.08396,0.01496 -0.04136,0.01029 -0.127807,0.01375 -0.07072,-0.0665 -0.197098,-0.06055 -0.283427,-0.109194 -0.205311,-0.067 -0.407294,0.02812 -0.610814,0.06575 -0.279199,0.06157 -0.502947,0.201682 -0.715322,0.392295 -0.303689,0.237278 -0.581234,0.507695 -0.902007,0.722433 -0.183071,0.111574 -0.364424,0.226592 -0.509858,0.386839 -0.156985,0.175011 -0.328318,0.340109 -0.447966,0.544766 -0.119552,0.219561 -0.231023,0.442308 -0.331205,0.671437 -0.0818,0.214807 -0.199512,0.413591 -0.274902,0.631352 -0.10522,0.327786 -0.230219,0.649921 -0.297122,0.988941 -0.02954,0.125097 -0.0782,0.308218 -0.08765,0.437929 -0.0045,0.06139 0.0054,0.123 0.0063,0.184545 0.0026,0.182773 -0.0021,0.365694 0.02392,0.547463 0.05414,0.411525 0.122664,0.820705 0.181404,1.231407 0.01349,0.311161 0.0755,0.59957 0.235294,0.871307 0.07192,0.11956 0.129275,0.249346 0.210193,0.363236 0.02862,0.04028 0.0644,0.07515 0.09275,0.11561 0.158171,0.225703 0.0073,0.07022 0.20756,0.249827 1.216793,0.707115 2.345545,1.606413 3.664953,2.096069 0.365006,0.135462 0.747017,0.217342 1.112986,0.349994 0.111974,0.04197 0.225875,0.07911 0.335917,0.125902 0.64375,0.273743 0.01572,0.02897 0.52351,0.260752 0.200774,0.09164 0.419127,0.131842 0.634995,0.168825 0.656071,0.08521 1.313696,0.03966 1.973339,0.02606 0.540906,-0.01961 1.098082,-0.03688 1.574025,-0.327319 0.288282,-0.183721 0.581369,-0.376658 0.78273,-0.659141 0.160703,-0.314235 0.309962,-0.633484 0.454356,-0.955608 0.169328,-0.381855 0.363529,-0.75383 0.510497,-1.144847 0.06429,-0.216572 0.139272,-0.435198 0.167537,-0.660395 0.03102,-0.247126 0.01603,-0.50196 0.0051,-0.749472 -0.03872,-0.598606 -0.06299,-1.20081 -0.243173,-1.778591 -0.139978,-0.446638 -0.304263,-0.889255 -0.50636,-1.311057 -0.07767,-0.118447 -0.124748,-0.244957 -0.190656,-0.370162 -0.102928,-0.19553 -0.03762,-0.06724 -0.155202,-0.257252 -0.02786,-0.04502 -0.05338,-0.09145 -0.08007,-0.13718 -0.02453,-0.03628 -0.127458,-0.183557 -0.147942,-0.23108 -0.01632,-0.03791 -0.01744,-0.08117 -0.03328,-0.119286 -0.04365,-0.10499 -0.11993,-0.204733 -0.194881,-0.288236 -0.05603,-0.06275 -0.134819,-0.160893 -0.20941,-0.204519 -1.13361,-0.663001 -2.505194,-1.903729 -3.996002,-2.126788 -0.715643,-0.06075 -1.432947,-0.03313 -2.1496,-0.07567 -0.08627,-0.0064 -0.172402,-0.01511 -0.25882,-0.0191 -0.03896,-0.0018 -0.147958,-0.02198 -0.117002,0.0017 3.533463,2.708941 1.884085,2.137877 3.305146,2.367044 0.184746,0.03946 0.37083,0.03839 0.55897,0.0359 0.304609,0.01414 0.608224,0.05169 0.893979,0.16504 1.293757,0.561532 0.03792,0.02429 -2.973382,-1.744179 -0.05556,-0.03263 0.119629,0.04814 0.177771,0.07591 0.104616,0.04997 0.202993,0.10311 0.286779,0.185026 0.03705,0.03622 0.06476,0.08089 0.09714,0.121332 0.02479,0.04588 0.0496,0.09177 0.0744,0.137649 0.02772,0.03921 0.0589,0.0762 0.08317,0.117644 0.112937,0.192867 0.195728,0.406769 0.292896,0.607329 0.09636,0.342117 0.237715,0.669535 0.324406,1.014935 0.128926,0.373811 0.167304,0.762141 0.14292,1.156664 -0.0051,0.387051 -0.0013,0.774709 -0.02894,1.161033 -0.04107,0.327425 -0.101256,0.643546 -0.262176,0.936524 -0.16215,0.324726 -0.342016,0.639334 -0.560789,0.930156 -0.206047,0.254235 -0.439844,0.477171 -0.729158,0.636154 -0.289017,0.169904 -0.591232,0.317976 -0.863692,0.51581 -0.311621,0.209291 -0.603168,0.454702 -0.952143,0.601821 -0.365768,0.12414 -0.733311,0.171257 -1.114462,0.07067 -1.382924,-0.44282 -0.243406,-0.09475 2.974454,1.797555 0.03612,0.02125 -0.0763,-0.03528 -0.111612,-0.05784 -0.123949,-0.07918 -0.214445,-0.193987 -0.312208,-0.30135 -0.189712,-0.230134 -0.30058,-0.498163 -0.397635,-0.777452 -0.09016,-0.304651 -0.172148,-0.611124 -0.264985,-0.914942 -0.05662,-0.172733 -0.138354,-0.341791 -0.183587,-0.517792 -0.05276,-0.205274 -0.08306,-0.419172 -0.122232,-0.627227 -0.06894,-0.452281 -0.125198,-0.905301 -0.117941,-1.364099 -0.0013,-0.32434 0.08788,-0.635401 0.20664,-0.93567 0.09498,-0.287274 0.180859,-0.579508 0.309216,-0.854043 0.161708,-0.264339 0.353875,-0.511519 0.580149,-0.723918 z" />
    <path
       style="fill:#ffff00;fill-opacity:1;stroke-width:0.518999"
       id="path17"
       d="m 73.296549,28.095101 c -0.422389,0.149963 -0.811522,0.376756 -1.213612,0.572085 -0.643059,0.329885 -1.289394,0.65193 -1.900809,1.038259 -0.423871,0.35233 -0.86323,0.688076 -1.317861,0.99976 -0.06351,0.04014 -0.127031,0.08029 -0.190547,0.120436 0,0 1.580499,1.005318 1.580499,1.005318 v 0 c 0.05667,-0.04529 0.113347,-0.09057 0.170021,-0.135855 0.436285,-0.336338 0.891784,-0.645859 1.321292,-0.990912 0.568341,-0.418603 1.162278,-0.794324 1.823842,-1.052259 0.432721,-0.18923 0.878874,-0.344098 1.338739,-0.453144 z" />
    <path
       style="fill:#ffff00;fill-opacity:1;stroke-width:0.518999"
       id="path18"
       d="m 77.415037,30.985558 c -0.106053,0.580987 -0.225962,1.156726 -0.304734,1.742397 -0.0881,0.566182 -0.18692,1.140685 -0.387575,1.679673 -0.102809,0.239517 -0.207989,0.478364 -0.356761,0.693031 -0.20936,0.294624 -0.426127,0.584822 -0.610545,0.896054 -0.110995,0.233198 -0.12859,0.485733 -0.125216,0.739362 0,0 1.715703,0.869416 1.715703,0.869416 v 0 c -0.007,-0.221666 -0.02969,-0.449488 0.06746,-0.656559 0.157819,-0.315121 0.362971,-0.607266 0.600747,-0.867309 0.05474,-0.06506 0.132458,-0.148553 0.171934,-0.22696 0.08148,-0.161843 0.09797,-0.374721 0.186301,-0.535604 0.185394,-0.566338 0.179351,-1.17852 0.310891,-1.758217 0.102674,-0.558196 0.223697,-1.116719 0.427794,-1.647907 z" />
    <path
       style="fill:#ffff00;fill-opacity:1;stroke-width:0.518999"
       id="path19"
       d="m 82.583641,34.181666 c 0.164089,0.318243 0.265803,0.665954 0.393956,1.000114 0.09452,0.275066 0.191773,0.556083 0.214776,0.848379 0.01344,0.170799 -0.0021,0.345405 -0.01098,0.515577 -0.0341,0.419286 -0.151403,0.822304 -0.261237,1.226019 -0.0695,0.270372 -0.13862,0.541324 -0.194593,0.814887 -0.01728,0.09798 -0.03406,0.195744 -0.04658,0.294429 0,0 1.73015,0.900625 1.73015,0.900625 v 0 c 0.0045,-0.0963 0.0075,-0.192844 0.02167,-0.288379 0.04045,-0.274918 0.11089,-0.543473 0.15987,-0.816833 0.101957,-0.42233 0.189531,-0.845264 0.222199,-1.280247 0.06692,-0.502984 0.0581,-0.946306 -0.136186,-1.422908 -0.114451,-0.324924 -0.230211,-0.64933 -0.310092,-0.985001 z" />
    <path
       style="fill:#ffff00;fill-opacity:1;stroke-width:0.518999"
       id="path20"
       d="m 89.532512,33.561244 c 0.323704,0.483706 0.731999,0.893972 1.127752,1.316607 0.209619,0.206602 0.360349,0.463312 0.560297,0.677233 0.56051,0.493641 1.376252,0.826529 1.943503,1.159338 0.524279,0.307594 -1.054185,-0.605497 -1.582095,-0.906817 -0.0311,-0.01775 0.06107,0.03739 0.09161,0.05608 0.585118,0.33442 1.168604,0.671711 1.755354,1.003261 0.05439,0.03073 0.113022,0.05346 0.167598,0.08386 0.02899,0.01614 0.116226,0.06412 0.08747,0.04754 -1.632294,-0.941051 -2.073429,-1.241975 -1.49084,-0.84841 0.148831,0.103669 0.29981,0.20334 0.451115,0.303252 0,0 1.809001,0.69913 1.809001,0.69913 v 0 c -0.157708,-0.08815 -0.309555,-0.183086 -0.451001,-0.295561 -0.02836,-0.01826 -0.056,-0.03771 -0.08509,-0.05479 -0.581062,-0.341199 -1.162775,-0.681294 -1.745292,-1.020006 -0.08087,-0.04702 -0.09703,-0.04945 -0.17721,-0.08821 -0.02658,-0.01286 -0.104632,-0.05471 -0.07912,-0.03985 0.521666,0.303914 1.045136,0.604713 1.567706,0.907071 -1.114716,-0.642128 -3.555664,-2.045237 -0.247967,-0.135599 0.02252,0.01302 -0.04202,-0.03074 -0.06395,-0.04473 -0.02365,-0.01511 -0.04849,-0.0283 -0.07273,-0.04245 -0.02809,-0.01805 -0.05618,-0.03606 -0.08427,-0.05409 -0.262176,-0.183795 -0.405649,-0.481965 -0.644102,-0.69328 -0.381561,-0.392877 -0.818369,-0.745048 -1.063212,-1.246946 z" />
    <path
       style="fill:#ffff00;fill-opacity:1;stroke-width:0.518999"
       id="path22"
       d="m 90.476045,22.840017 c 0.29854,-0.01751 0.596712,-0.0097 0.894826,-0.0375 0.404799,-0.0136 0.798002,-0.08035 1.189077,-0.182738 0.265912,-0.08 0.536062,-0.133358 0.812578,-0.154972 0.139901,0.0036 0.285829,-0.02435 0.425463,-0.0057 0.05555,0.0074 0.108347,0.02877 0.162849,0.04184 0.126973,0.06287 0.06167,0.03097 0.19595,0.09558 0,0 -1.517465,-1.198001 -1.517465,-1.198001 v 0 c -0.150974,-0.05553 -0.07262,-0.03133 -0.235399,-0.0715 -0.201452,-0.02481 -0.404358,0.0036 -0.605745,0.0191 -0.272355,0.03581 -0.531458,0.11844 -0.791988,0.203348 -0.383456,0.09619 -0.77388,0.129762 -1.167953,0.152749 -0.31614,0.0065 -0.633254,-3.97e-4 -0.949066,-0.01512 z" />
    <path
       style="fill:#ffff00;fill-opacity:1;stroke-width:0.518999"
       id="path23"
       d="m 87.330025,20.130462 c 0.316717,-0.161417 0.576527,-0.377512 0.812771,-0.640647 0.238792,-0.265064 0.491146,-0.518999 0.778301,-0.731715 0.182065,-0.11355 0.27029,-0.314889 0.381444,-0.489551 0.03075,-0.04832 0.06439,-0.09476 0.09658,-0.142135 0.03125,-0.04914 0.06251,-0.09827 0.09376,-0.147406 0.138244,-0.17671 0.225819,-0.386374 0.349932,-0.571457 0.08446,-0.0946 0.223904,-0.151096 0.337881,-0.211134 0,0 -1.637453,-1.065998 -1.637453,-1.065998 v 0 c -0.143087,0.08646 -0.310756,0.134371 -0.388919,0.296111 -0.11062,0.193514 -0.183378,0.405868 -0.303215,0.594636 -0.163894,0.254834 -0.317903,0.52826 -0.55694,0.720123 -0.262819,0.247225 -0.528373,0.492948 -0.758757,0.771066 -0.238778,0.244893 -0.518953,0.431798 -0.838848,0.556287 z" />
    <path
       style="fill:#ffff00;fill-opacity:1;stroke-width:0.518999"
       id="path24"
       d="m 80.756513,18.511103 c -0.09713,-0.283664 -0.175294,-0.578988 -0.392091,-0.800952 -0.21186,-0.216912 -0.438412,-0.343487 -0.689917,-0.505992 -4.022807,-2.301003 -0.858891,-0.502711 -2.214105,-1.260071 -0.104632,-0.05847 -0.41764,-0.235478 -0.313132,-0.176779 0.432538,0.242945 0.856845,0.501108 1.297231,0.72952 0.0735,0.03812 -0.13104,-0.101478 -0.192762,-0.156671 -0.04882,-0.04366 -0.09227,-0.09298 -0.138409,-0.139469 -0.182531,-0.193437 -0.248986,-0.431729 -0.268893,-0.689201 0,0 -1.760173,-0.847509 -1.760173,-0.847509 v 0 c 0.05313,0.133644 0.01336,0.01564 0.04504,0.193856 0.0397,0.22335 0.108167,0.441308 0.250069,0.621965 0.649229,0.677122 1.155136,0.825787 2.170395,1.419201 0.09508,0.05557 0.193638,0.104979 0.290293,0.157768 0.11538,0.06302 0.458274,0.257741 0.345816,0.189646 -0.381416,-0.230954 -0.768602,-0.452236 -1.152904,-0.678353 0.509741,0.302905 0.868487,0.456392 0.961859,1.081762 z" />
    <path
       style="fill:#ffff00;fill-opacity:1;stroke-width:0.518999"
       id="path25"
       d="m 71.836983,18.110183 c 0.35011,0.307974 0.645586,0.670473 0.959972,1.013363 0.208306,0.220833 0.390355,0.466166 0.603403,0.68238 0.590439,0.482044 0.116459,0.102071 1.820254,1.054105 0.09619,0.05375 0.03769,-0.0067 0.133213,0.02653 0.01646,0.0057 0.05704,0.03977 0.04191,0.03116 -0.541589,-0.308041 -1.081072,-0.619769 -1.621608,-0.929653 0.11774,0.151122 0.177382,0.339946 0.253722,0.514418 0.06701,0.175395 0.150662,0.341595 0.25799,0.495493 0.495046,0.555604 0.08912,0.110979 1.802688,1.073581 0.03369,0.01892 0.0759,0.01566 0.112366,0.02844 0.09704,0.034 0.190225,0.08808 0.276445,0.143052 -0.532839,-0.306271 -1.065678,-0.612542 -1.59852,-0.918813 0,0 1.822355,0.702107 1.822355,0.702107 v 0 c -0.579874,-0.334202 -1.159748,-0.668404 -1.739622,-1.002607 -0.09355,-0.04119 -0.190249,-0.07419 -0.283885,-0.114657 -0.03584,-0.01549 -0.1387,-0.07161 -0.105175,-0.05159 1.775259,1.060027 2.078424,1.261737 1.517571,0.891213 -0.146153,-0.104361 -0.226147,-0.273188 -0.301186,-0.432158 -0.06924,-0.187802 -0.159686,-0.366885 -0.219943,-0.558042 -0.573799,-0.35295 -1.143852,-0.712058 -1.721392,-1.05885 -0.03094,-0.01858 -0.07132,-0.01506 -0.103825,-0.03076 -0.01722,-0.0083 -0.06792,-0.0351 -0.05139,-0.0255 1.600362,0.929049 2.168171,1.157622 1.506437,0.885693 -0.273338,-0.176222 -0.452078,-0.468244 -0.687316,-0.688629 -0.301929,-0.31673 -0.583266,-0.650756 -0.868646,-0.982287 z" />
    <path
       style="fill:#ffff00;fill-opacity:1;stroke-width:0.518999"
       id="path26"
       d="m 71.222393,24.779962 c 0.876363,-0.334482 1.804119,-0.457507 2.730706,-0.560915 0.493186,-0.0088 0.996408,-0.11699 1.49143,-0.06843 0.08815,0.0086 0.174987,0.03194 0.258511,0.06141 0.05312,0.01874 0.09854,0.05463 0.147807,0.08194 -0.529614,-0.298337 -1.05923,-0.596675 -1.588844,-0.895013 0.1056,-0.0087 -0.02103,0.167821 -0.04249,0.211524 -0.02789,0.07803 -0.01767,0.04048 -0.0326,0.112127 0,0 1.772086,0.887286 1.772086,0.887286 v 0 c -0.02043,-0.01786 -0.01212,-0.0071 -0.02426,-0.03291 0.06022,-0.151104 0.162322,-0.287058 0.138242,-0.458795 -0.57759,-0.333975 -1.147273,-0.682017 -1.732772,-1.001926 -0.05128,-0.02802 -0.343016,-0.0118 -0.351382,-0.0111 -0.453134,0.03777 -0.899354,0.140242 -1.352238,0.180403 -1.004168,0.12075 -2.005923,0.264013 -3.011654,0.368054 z" />
    <path
       style="fill:#ffff00;fill-opacity:1;stroke-width:0.518999"
       id="path27"
       d="m 91.326538,29.1056 c 0.288065,-0.02876 0.578709,-0.02704 0.862348,0.03162 0.06621,0.05291 0.157268,0.0661 0.228518,0.1071 0.07881,0.04536 0.08368,0.06949 0.182163,0.102685 0.124055,0.06792 0.257244,0.123021 0.399045,0.132824 0.120311,0.0082 0.267221,0.0164 0.355367,0.108791 -0.03676,-0.02164 0.12559,0.07348 0.09409,0.05529 -4.169193,-2.407719 -0.107309,-0.0654 0.09736,0.06193 0.527654,0.328255 -2.180735,-1.187916 -1.613982,-0.933042 0.614183,0.276203 1.171308,0.664895 1.756961,0.997341 0.608486,0.285023 1.352729,0.749615 -1.418889,-0.827325 -0.18282,-0.104016 0.14932,0.09276 0.173648,0.105219 0.06016,0.05448 0.0297,0.02658 0.09134,0.08376 0,0 1.83338,0.708139 1.83338,0.708139 v 0 c -0.07489,-0.02514 -0.04012,-0.0074 -0.104312,-0.05327 -0.05053,-0.06433 -0.105627,-0.09611 -0.176612,-0.137221 -0.660525,-0.38254 -1.250879,-0.78369 -1.924027,-1.091779 0.531458,0.307422 2.118879,1.241406 1.594374,0.922266 -0.572545,-0.348372 -1.156946,-0.67691 -1.738526,-1.009978 -0.543873,-0.31147 2.162852,1.267603 1.625396,0.945189 -0.585251,-0.351086 -1.193657,-0.750607 -1.82643,-1.055438 -0.129225,-0.01826 -0.25637,-0.04593 -0.38496,-0.0671 -0.126215,-0.04682 -0.24656,-0.106966 -0.368007,-0.164655 -0.130307,-0.07781 -0.272822,-0.13801 -0.425918,-0.149837 -0.297886,-0.02029 -0.596519,0.0091 -0.894003,-0.02164 z" />
    <path
       id="path28"
       style="fill:#ffffff;stroke-width:0.518999"
       d="m 25.135416,24.341667 a 5.2255206,4.7624998 0 0 1 -5.225521,4.7625 5.2255206,4.7624998 0 0 1 -5.225521,-4.7625 5.2255206,4.7624998 0 0 1 5.225521,-4.7625 5.2255206,4.7624998 0 0 1 5.225521,4.7625 z" />
    <path
       id="path28-6"
       style="fill:#ffffff;stroke-width:0.518999"
       d="m 28.839582,30.691666 a 5.2255206,4.7624998 0 0 1 -5.225521,4.762499 5.2255206,4.7624998 0 0 1 -5.22552,-4.762499 5.2255206,4.7624998 0 0 1 5.22552,-4.7625 5.2255206,4.7624998 0 0 1 5.225521,4.7625 z" />
    <path
       id="path28-9"
       style="fill:#ffffff;stroke-width:0.518999"
       d="m 38.496877,24.407812 a 7.4744787,5.0932293 0 0 1 -7.474479,5.093229 7.4744787,5.0932293 0 0 1 -7.474479,-5.093229 7.4744787,5.0932293 0 0 1 7.474479,-5.093229 7.4744787,5.0932293 0 0 1 7.474479,5.093229 z" />
    <path
       id="path28-2"
       style="fill:#ffffff;stroke-width:0.518999"
       d="m 37.306251,29.501043 a 5.2255206,4.7624998 0 0 1 -5.225521,4.7625 5.2255206,4.7624998 0 0 1 -5.22552,-4.7625 5.2255206,4.7624998 0 0 1 5.22552,-4.762499 5.2255206,4.7624998 0 0 1 5.225521,4.762499 z" />
    <path
       id="path28-99"
       style="fill:#ffffff;stroke-width:0.518999"
       d="m 31.088541,20.042187 a 4.8286457,3.7703125 0 0 1 -4.828646,3.770312 4.8286457,3.7703125 0 0 1 -4.828645,-3.770312 4.8286457,3.7703125 0 0 1 4.828645,-3.770313 4.8286457,3.7703125 0 0 1 4.828646,3.770313 z" />
  </g>
  <g
     inkscape:label="components"
     inkscape:groupmode="layer"
     id="layer1"
     style="display:none">
    <circle
       style="fill:#0000ff;stroke-width:0.518999"
       id="path1"
       cx="86.956413"
       cy="112.66876"
       r="1.5"
       inkscape:label="CvOut" />
    <circle
       style="fill:#00ff00;stroke-width:0.518999"
       id="path1-2"
       cx="20.549999"
       cy="112.66876"
       r="1.5"
       inkscape:label="SpeedCvIn" />
    <circle
       style="fill:#ff0000;stroke-width:0.518999"
       id="path2"
       cx="10.585287"
       cy="112.66876"
       r="1.5"
       inkscape:label="Speed" />
    <circle
       style="fill:#00ff00;stroke-width:0.518999"
       id="path1-2-3"
       cx="49.167839"
       cy="112.66876"
       r="1.5"
       inkscape:label="MassCvIn" />
    <circle
       style="fill:#ff0000;stroke-width:0.518999"
       id="path2-8"
       cx="39.203125"
       cy="112.66876"
       r="1.5"
       inkscape:label="Mass" />
    <circle
       style="fill:#0000ff;stroke-width:0.518999"
       id="path1-8"
       cx="69.362999"
       cy="112.66876"
       r="1.5"
       inkscape:label="GateOut" />
  </g>
</svg>
